# xmcd CD database file
#
# Track frame offsets:
#	150
#	16483
#	40200
#	74911
#	92244
#	124321
#	153332
#	185062
#	208130
#	248748
#	262001
#	286570
#	313169
#
# Disc length: 4439 seconds
#
# Revision: 0
# Processed by: cddbd v1.5.1PL2 Copyright (c) Steve Scherf et al.
# Submitted via: CDex 1.51
#
DISCID=c711550d
DTITLE=Various Artist - Romantic Jazz Piano
DYEAR=2006
DGENRE=Jazz
TTITLE0=Trio Toykeat - End Of The First Set
TTITLE1=Michel Petrucciani - Lullaby
TTITLE2=Gonzalo Rubalcaba - Besame Mucho
TTITLE3=Eddie Higgins - These Foolish Things
TTITLE4=Oscar Peterson - When Summer Comes
TTITLE5=Yoonchan Kwak - Noomas
TTITLE6=Bil Evans - I Love You, Porgy
TTITLE7=Takashi - The World In Sorrow
TTITLE8=Jacky Terrasson - Smoke Gets In Your Eyes
TTITLE9=Bill Charlap - Somewhere
TTITLE10=Thierry Lang - Waiting For A Wave
TTITLE11=Tommy Flanagan - Sunset And The Mockingbird
TTITLE12=Brad Mehldau - Exit Music
EXTD=YEAR: 2006
EXTT0=
EXTT1=
EXTT2=
EXTT3=
EXTT4=
EXTT5=
EXTT6=
EXTT7=
EXTT8=
EXTT9=
EXTT10=
EXTT11=
EXTT12=
PLAYORDER=
